<svg xmlns="http://www.w3.org/2000/svg" xmlns:xlink="http://www.w3.org/1999/xlink" width="500" zoomAndPan="magnify" viewBox="0 0 375 374.999991" height="500" preserveAspectRatio="xMidYMid meet" version="1.0"><defs><clipPath id="62a0ce0bf7"><path d="M 72.449219 42.550781 L 302.699219 42.550781 L 302.699219 332.800781 L 72.449219 332.800781 Z M 72.449219 42.550781 " clip-rule="nonzero"/></clipPath></defs><g clip-path="url(#62a0ce0bf7)"><path fill="#0cc0df" d="M 207.09375 108.746094 C 199.003906 112.636719 186.199219 114.339844 174.683594 114.339844 L 174.683594 114.359375 C 163.128906 114.359375 150.046875 112.636719 141.875 108.601562 C 143.222656 127.296875 152.105469 150.476562 174.757812 150.621094 C 197.578125 150.621094 205.75 127.683594 207.09375 108.746094 Z M 208.90625 79.53125 L 175.671875 93.480469 C 174.867188 93.816406 173.972656 93.835938 173.113281 93.480469 L 140.398438 79.757812 L 140.398438 99.046875 C 140.398438 99.269531 140.460938 99.492188 140.570312 99.71875 C 140.90625 100 141.191406 100.351562 141.375 100.746094 C 142.742188 101.980469 145.449219 103.234375 149.117188 104.414062 C 155.605469 106.492188 164.632812 107.757812 174.691406 107.757812 L 174.691406 107.777344 C 184.707031 107.777344 193.722656 106.484375 200.222656 104.414062 C 203.71875 103.292969 206.335938 102.09375 207.753906 100.917969 C 207.976562 100.507812 208.292969 100.132812 208.691406 99.871094 C 208.84375 99.585938 208.914062 99.308594 208.914062 99.046875 L 208.914062 79.53125 Z M 174.378906 42.519531 L 121.535156 64.6875 L 174.378906 86.859375 L 227.242188 64.6875 Z M 179.261719 182.0625 L 198.027344 202.867188 L 197.519531 167.238281 Z M 153.238281 167.910156 L 152.976562 202.003906 L 169.855469 182.074219 Z M 162.847656 167.480469 L 173.484375 176.527344 L 175.460938 176.679688 L 188.605469 166.023438 C 189.011719 165.3125 188.867188 155.652344 188.867188 154.417969 C 184.753906 156.210938 180.085938 157.199219 174.757812 157.199219 C 170.0625 157.160156 166.046875 156.457031 162.195312 154.980469 C 162.195312 158.597656 161.816406 164.335938 162.847656 167.480469 Z M 118.679688 134.207031 L 105.402344 140.617188 C 103.550781 141.511719 102.355469 143.285156 102.113281 145.253906 L 93.921875 149.941406 C 92.78125 150.460938 91.996094 151.621094 91.996094 152.949219 L 91.996094 201.121094 C 91.996094 205.457031 98.578125 205.457031 98.578125 201.121094 L 98.578125 154.832031 L 105.066406 151.113281 C 106.730469 152.050781 108.785156 152.164062 110.558594 151.300781 L 123.835938 144.890625 C 128.523438 142.628906 128.246094 135.710938 123.214844 133.957031 C 121.777344 133.460938 120.15625 133.515625 118.679688 134.207031 Z M 110.804688 207.441406 L 88.785156 207.441406 C 83.742188 207.441406 79.585938 211.570312 79.585938 216.621094 L 79.585938 225.800781 L 120.003906 225.800781 L 120.003906 216.621094 C 120.003906 211.578125 115.855469 207.441406 110.804688 207.441406 Z M 275.003906 219.558594 L 271.785156 214.117188 C 270.398438 211.761719 267.355469 210.917969 264.847656 212.039062 L 258.960938 214.695312 C 255.78125 216.132812 252.304688 216.15625 249.085938 214.757812 L 243.179688 212.179688 C 240.652344 211.078125 237.644531 211.933594 236.261719 214.328125 L 233.121094 219.808594 C 231.402344 222.835938 228.527344 224.839844 225.105469 225.511719 C 223.535156 225.808594 218.9375 226.613281 217.699219 227.0625 C 215.660156 227.828125 214.257812 230.015625 214.558594 232.238281 L 215.363281 238.441406 C 215.8125 241.957031 214.730469 245.167969 212.296875 247.734375 L 207.90625 252.351562 C 206.074219 254.277344 206.132812 257.152344 207.945312 259.023438 L 212.398438 263.585938 C 214.863281 266.113281 215.984375 269.324219 215.574219 272.839844 L 214.84375 279.042969 C 214.527344 281.703125 216.453125 283.996094 219.082031 284.484375 L 225.460938 285.664062 C 228.933594 286.316406 231.757812 288.242188 233.550781 291.289062 L 236.769531 296.730469 C 238.152344 299.085938 241.199219 299.910156 243.707031 298.789062 L 249.59375 296.128906 C 252.773438 294.691406 256.25 294.671875 259.46875 296.089844 L 265.375 298.667969 C 267.882812 299.769531 270.90625 298.914062 272.292969 296.519531 L 275.433594 291.039062 C 277.152344 288.011719 280.027344 286.007812 283.449219 285.335938 L 289.828125 284.082031 C 292.445312 283.5625 294.351562 281.242188 293.996094 278.601562 L 293.191406 272.398438 C 292.742188 268.882812 293.824219 265.671875 296.257812 263.105469 L 300.648438 258.488281 C 302.460938 256.585938 302.460938 253.722656 300.609375 251.816406 L 296.15625 247.253906 C 293.691406 244.707031 292.570312 241.496094 292.980469 238 L 293.710938 231.796875 C 294.027344 229.125 292.101562 226.84375 289.472656 226.355469 L 283.09375 225.164062 C 279.621094 224.527344 276.796875 222.605469 275.003906 219.558594 Z M 209.5625 225.800781 C 210.496094 224.230469 211.804688 222.90625 213.371094 221.910156 L 213.371094 204.4375 C 213.371094 200.082031 219.972656 200.082031 219.972656 204.4375 L 219.972656 219.800781 C 223.304688 219.148438 225.902344 219.167969 227.433594 216.53125 L 230.570312 211.050781 C 232.964844 206.84375 237.730469 204.640625 242.441406 205.222656 L 242.441406 193.78125 C 242.441406 185.253906 238.234375 177.5 231.46875 171.8125 C 224.34375 165.871094 214.808594 162.410156 204.027344 162.410156 L 204.722656 211.273438 C 204.886719 214.617188 201 215.964844 199.003906 213.742188 L 174.570312 186.691406 L 152.136719 213.160156 C 150.171875 215.480469 146.230469 214.167969 146.339844 210.824219 L 146.71875 162.410156 C 136.140625 162.410156 126.53125 166.019531 119.59375 171.8125 C 112.828125 177.5 108.640625 185.253906 108.640625 193.78125 L 108.640625 200.84375 L 110.8125 200.84375 C 119.503906 200.84375 126.585938 207.925781 126.585938 216.617188 L 126.585938 225.796875 L 131.089844 225.796875 L 131.089844 204.429688 C 131.089844 200.078125 137.6875 200.078125 137.6875 204.429688 L 137.6875 225.796875 L 209.5625 225.796875 Z M 200.175781 253.667969 C 200.554688 251.539062 201.542969 249.5 203.152344 247.800781 L 207.542969 243.183594 C 208.589844 242.082031 209.039062 240.769531 208.847656 239.261719 L 207.972656 232.402344 L 72.582031 232.402344 L 72.582031 253.675781 L 200.175781 253.675781 Z M 233.453125 302.871094 C 230.253906 300.066406 228.703125 294.554688 226.421875 292.976562 C 223.976562 291.277344 217.957031 291.855469 213.878906 289.425781 L 206.667969 309.6875 L 220.347656 302.566406 C 222.089844 302.027344 223.9375 302.996094 224.476562 304.734375 L 228.441406 317.503906 Z M 244.179688 305.539062 C 242.613281 305.917969 240.984375 305.949219 239.433594 305.691406 L 231.414062 329.167969 C 230.386719 332.195312 226.085938 332.101562 225.148438 329.09375 L 219.355469 310.460938 L 202.246094 319.394531 C 199.609375 320.78125 196.65625 318.183594 197.632812 315.390625 L 208.960938 283.613281 C 208.339844 281.953125 208.082031 280.140625 208.308594 278.285156 L 209.039062 272.082031 C 209.226562 270.550781 208.757812 269.257812 207.695312 268.15625 L 203.242188 263.59375 C 202.273438 262.585938 201.503906 261.464844 200.980469 260.25 L 97.628906 260.25 L 97.628906 332.386719 L 244.179688 332.386719 Z M 294.613281 289.257812 C 290.855469 291.335938 284.835938 291.074219 282.59375 292.660156 C 280.238281 294.324219 278.894531 300.101562 275.1875 303.074219 L 280.121094 317.503906 L 284.101562 304.734375 C 284.703125 302.769531 286.945312 301.761719 288.964844 302.921875 L 301.902344 309.667969 Z M 270.40625 240.066406 C 261.53125 231.527344 247.042969 231.527344 238.160156 240.066406 C 229.335938 248.550781 229.335938 262.289062 238.160156 270.753906 C 247.035156 279.316406 261.523438 279.316406 270.40625 270.753906 C 279.230469 262.289062 279.230469 248.546875 270.40625 240.066406 Z M 254.289062 227.066406 C 270.214844 227.066406 283.621094 239.539062 283.621094 255.402344 C 283.621094 271.289062 270.222656 283.757812 254.289062 283.757812 C 238.34375 283.757812 224.945312 271.289062 224.945312 255.402344 C 224.945312 239.539062 238.34375 227.066406 254.289062 227.066406 Z M 223.9375 70.609375 C 223.9375 66.484375 230.214844 66.484375 230.214844 70.609375 L 230.214844 96.316406 C 237.621094 98.648438 239.972656 108.074219 234.441406 113.625 C 227.898438 120.167969 216.644531 115.511719 216.644531 106.238281 C 216.644531 101.644531 219.648438 97.660156 223.9375 96.316406 Z M 223.9375 70.609375 " fill-opacity="1" fill-rule="nonzero"/></g></svg>